<svg viewBox="0 0 330 200" xmlns="http://www.w3.org/2000/svg"><g><g><g><g><g><line x1="51.53200149536133" y1="176.89999961853027" x2="46.53200149536133" y2="176.89999961853027" style="visibility: inherit;" fill="rgb(0, 0, 0)" stroke="rgb(204, 204, 204)" stroke-width="1px"></line><line x1="51.53200149536133" y1="154.787499666214" x2="46.53200149536133" y2="154.787499666214" style="visibility: inherit;" fill="rgb(0, 0, 0)" stroke="rgb(204, 204, 204)" stroke-width="1px"></line><line x1="51.53200149536133" y1="132.6749997138977" x2="46.53200149536133" y2="132.6749997138977" style="visibility: inherit;" fill="rgb(0, 0, 0)" stroke="rgb(204, 204, 204)" stroke-width="1px"></line><line x1="51.53200149536133" y1="110.56249976158142" x2="46.53200149536133" y2="110.56249976158142" style="visibility: inherit;" fill="rgb(0, 0, 0)" stroke="rgb(204, 204, 204)" stroke-width="1px"></line><line x1="51.53200149536133" y1="88.44999980926514" x2="46.53200149536133" y2="88.44999980926514" style="visibility: inherit;" fill="rgb(0, 0, 0)" stroke="rgb(204, 204, 204)" stroke-width="1px"></line><line x1="51.53200149536133" y1="66.33749985694885" x2="46.53200149536133" y2="66.33749985694885" style="visibility: inherit;" fill="rgb(0, 0, 0)" stroke="rgb(204, 204, 204)" stroke-width="1px"></line><line x1="51.53200149536133" y1="44.22499990463257" x2="46.53200149536133" y2="44.22499990463257" style="visibility: inherit;" fill="rgb(0, 0, 0)" stroke="rgb(204, 204, 204)" stroke-width="1px"></line><line x1="51.53200149536133" y1="22.112499952316284" x2="46.53200149536133" y2="22.112499952316284" style="visibility: inherit;" fill="rgb(0, 0, 0)" stroke="rgb(204, 204, 204)" stroke-width="1px"></line><line x1="51.53200149536133" y1="0" x2="46.53200149536133" y2="0" style="visibility: inherit;" fill="rgb(0, 0, 0)" stroke="rgb(204, 204, 204)" stroke-width="1px"></line></g><g transform="translate(41.53200149536133, 0)"><text style="text-anchor: end; visibility: hidden; font-family: Roboto, sans-serif; font-size: 12px; font-weight: 200;" x="0" y="176.89999961853027" dx="0em" dy="0.3em" fill="rgb(33, 33, 33)" stroke="none" stroke-width="1px">-5.5</text><text style="text-anchor: end; visibility: inherit; font-family: Roboto, sans-serif; font-size: 12px; font-weight: 200;" x="0" y="154.787499666214" dx="0em" dy="0.3em" fill="rgb(33, 33, 33)" stroke="none" stroke-width="1px">-5</text><text style="text-anchor: end; visibility: hidden; font-family: Roboto, sans-serif; font-size: 12px; font-weight: 200;" x="0" y="132.6749997138977" dx="0em" dy="0.3em" fill="rgb(33, 33, 33)" stroke="none" stroke-width="1px">-4.5</text><text style="text-anchor: end; visibility: inherit; font-family: Roboto, sans-serif; font-size: 12px; font-weight: 200;" x="0" y="110.56249976158142" dx="0em" dy="0.3em" fill="rgb(33, 33, 33)" stroke="none" stroke-width="1px">-4</text><text style="text-anchor: end; visibility: hidden; font-family: Roboto, sans-serif; font-size: 12px; font-weight: 200;" x="0" y="88.44999980926514" dx="0em" dy="0.3em" fill="rgb(33, 33, 33)" stroke="none" stroke-width="1px">-3.5</text><text style="text-anchor: end; visibility: inherit; font-family: Roboto, sans-serif; font-size: 12px; font-weight: 200;" x="0" y="66.33749985694885" dx="0em" dy="0.3em" fill="rgb(33, 33, 33)" stroke="none" stroke-width="1px">-3</text><text style="text-anchor: end; visibility: hidden; font-family: Roboto, sans-serif; font-size: 12px; font-weight: 200;" x="0" y="44.22499990463257" dx="0em" dy="0.3em" fill="rgb(33, 33, 33)" stroke="none" stroke-width="1px">-2.5</text><text style="text-anchor: end; visibility: inherit; font-family: Roboto, sans-serif; font-size: 12px; font-weight: 200;" x="0" y="22.112499952316284" dx="0em" dy="0.3em" fill="rgb(33, 33, 33)" stroke="none" stroke-width="1px">-2</text><text style="text-anchor: end; visibility: hidden; font-family: Roboto, sans-serif; font-size: 12px; font-weight: 200;" x="0" y="0" dx="0em" dy="0.3em" fill="rgb(33, 33, 33)" stroke="none" stroke-width="1px">-1.5</text></g><line x1="51.53200149536133" y1="0" x2="51.53200149536133" y2="176.89999961853027" fill="rgb(0, 0, 0)" stroke="rgb(204, 204, 204)" stroke-width="1px"></line></g></g><g transform="translate(51, 0)" clip-path="url(#clip_0)"><clipPath id="clip_0"><rect width="278" height="176"></rect></clipPath><g><g><g><line x1="0" y1="0" x2="0" y2="176.89999961853027" fill="rgb(0, 0, 0)" stroke="rgb(66, 66, 66)" stroke-width="1px" opacity="0.25"></line><line x1="25.31527259133079" y1="0" x2="25.31527259133079" y2="176.89999961853027" fill="rgb(0, 0, 0)" stroke="rgb(66, 66, 66)" stroke-width="1px" opacity="0.25"></line><line x1="50.63054518266158" y1="0" x2="50.63054518266158" y2="176.89999961853027" fill="rgb(0, 0, 0)" stroke="rgb(66, 66, 66)" stroke-width="1px" opacity="0.25"></line><line x1="75.94581777399236" y1="0" x2="75.94581777399236" y2="176.89999961853027" fill="rgb(0, 0, 0)" stroke="rgb(66, 66, 66)" stroke-width="1px" opacity="0.25"></line><line x1="101.26109036532316" y1="0" x2="101.26109036532316" y2="176.89999961853027" fill="rgb(0, 0, 0)" stroke="rgb(66, 66, 66)" stroke-width="1px" opacity="0.25"></line><line x1="126.57636295665394" y1="0" x2="126.57636295665394" y2="176.89999961853027" fill="rgb(0, 0, 0)" stroke="rgb(66, 66, 66)" stroke-width="1px" opacity="0.25"></line><line x1="151.89163554798472" y1="0" x2="151.89163554798472" y2="176.89999961853027" fill="rgb(0, 0, 0)" stroke="rgb(66, 66, 66)" stroke-width="1px" opacity="0.25"></line><line x1="177.20690813931552" y1="0" x2="177.20690813931552" y2="176.89999961853027" fill="rgb(0, 0, 0)" stroke="rgb(66, 66, 66)" stroke-width="1px" opacity="0.25"></line><line x1="202.5221807306463" y1="0" x2="202.5221807306463" y2="176.89999961853027" fill="rgb(0, 0, 0)" stroke="rgb(66, 66, 66)" stroke-width="1px" opacity="0.25"></line><line x1="227.8374533219771" y1="0" x2="227.8374533219771" y2="176.89999961853027" fill="rgb(0, 0, 0)" stroke="rgb(66, 66, 66)" stroke-width="1px" opacity="0.25"></line><line x1="253.15272591330788" y1="0" x2="253.15272591330788" y2="176.89999961853027" fill="rgb(0, 0, 0)" stroke="rgb(66, 66, 66)" stroke-width="1px" opacity="0.25"></line><line x1="278.4679985046387" y1="0" x2="278.4679985046387" y2="176.89999961853027" fill="rgb(0, 0, 0)" stroke="rgb(66, 66, 66)" stroke-width="1px" opacity="0.25"></line></g><g><line x1="0" y1="176.89999961853027" x2="278.4679985046387" y2="176.89999961853027" fill="rgb(0, 0, 0)" stroke="rgb(66, 66, 66)" stroke-width="1px" opacity="0.25"></line><line x1="0" y1="154.787499666214" x2="278.4679985046387" y2="154.787499666214" fill="rgb(0, 0, 0)" stroke="rgb(66, 66, 66)" stroke-width="1px" opacity="0.25"></line><line x1="0" y1="132.6749997138977" x2="278.4679985046387" y2="132.6749997138977" fill="rgb(0, 0, 0)" stroke="rgb(66, 66, 66)" stroke-width="1px" opacity="0.25"></line><line x1="0" y1="110.56249976158142" x2="278.4679985046387" y2="110.56249976158142" fill="rgb(0, 0, 0)" stroke="rgb(66, 66, 66)" stroke-width="1px" opacity="0.25"></line><line x1="0" y1="88.44999980926514" x2="278.4679985046387" y2="88.44999980926514" fill="rgb(0, 0, 0)" stroke="rgb(66, 66, 66)" stroke-width="1px" opacity="0.25"></line><line x1="0" y1="66.33749985694885" x2="278.4679985046387" y2="66.33749985694885" fill="rgb(0, 0, 0)" stroke="rgb(66, 66, 66)" stroke-width="1px" opacity="0.25"></line><line x1="0" y1="44.22499990463257" x2="278.4679985046387" y2="44.22499990463257" fill="rgb(0, 0, 0)" stroke="rgb(66, 66, 66)" stroke-width="1px" opacity="0.25"></line><line x1="0" y1="22.112499952316284" x2="278.4679985046387" y2="22.112499952316284" fill="rgb(0, 0, 0)" stroke="rgb(66, 66, 66)" stroke-width="1px" opacity="0.25"></line><line x1="0" y1="0" x2="278.4679985046387" y2="0" fill="rgb(0, 0, 0)" stroke="rgb(66, 66, 66)" stroke-width="1px" opacity="0.25"></line></g></g></g><g><g><line x1="0" y1="-66.33749985694885" x2="278.4679985046387" y2="-66.33749985694885" fill="rgb(0, 0, 0)" stroke="rgb(153, 153, 153)" stroke-width="1.5px"></line></g></g><g><g><line x1="0" y1="0" x2="0" y2="176.89999961853027" fill="rgb(0, 0, 0)" stroke="rgb(153, 153, 153)" stroke-width="1.5px"></line></g></g><g><g><g><g><g><path style="fill: none;" stroke="rgb(255, 112, 67)" stroke-width="2px" d="M8.295308522727272,161.6241005273259L12.44296278409091,159.931989515655L16.590617045454543,157.54592216320182L20.73827130681818,154.57279186943717L24.88592556818182,151.36010423980105L29.033579829545452,147.8853479170009L33.181234090909086,144.32721853211848L37.32888835227273,140.57893614258884L41.47654261363636,136.6299316878333L45.624196875,132.6124507116966L49.77185113636364,128.79492827355259L53.91950539772728,124.83187531340978L58.067159659090905,121.2816788749828L62.214813920454546,117.68447301489358L66.36246818181817,114.33662390660653L70.51012244318181,111.25196419975047L74.65777670454546,108.14725476035917L78.8054309659091,105.22013731467088L82.95308522727272,102.66277769897992L87.10073948863636,99.94868565282644L91.24839375,97.56714883117685L95.39604801136363,94.82283321272703L99.54370227272727,91.82295970165531L103.6913565340909,89.1706563402277L107.83901079545456,86.48043618545226L111.98666505681818,83.99530052847733L116.13431931818181,81.27083951897329L120.28197357954546,78.69382024248387L124.42962784090909,75.93001052619209L128.57728210227273,73.57313049870078L132.72493636363635,71.24639307172738L136.87259062500002,69.09855072319165L141.02024488636363,67.08281546831365L145.16789914772727,64.69740358405721L149.3155534090909,62.22107126596339L153.46320767045455,59.436804439232866L157.6108619318182,56.61613606960219L161.7585161931818,53.27184330990308L165.90617045454545,50.50625549213889L170.05382471590912,48.12591252252552L174.20147897727273,45.752473792432994L178.34913323863637,43.715024531194565L182.4967875,41.81027826965774L186.64444176136362,39.96657517113571L190.79209602272726,38.38803417991463L194.9397502840909,36.415221227697444L199.08740454545455,34.59979654744135L203.2350588068182,32.65133989742613L207.3827130681818,30.66766544627712L211.53036732954544,28.74459788026L215.6780215909091,26.748881500853432L219.82567585227272,25.291502595215608L223.97333011363637,23.69157211151883L228.120984375,22.148212999682098L232.26863863636362,20.90275885881981L236.4162928977273,19.641722753365126L240.56394715909093,18.29757754037219L244.71160142045454,17.041004488683324L248.85925568181818,15.822786644436693L253.00690994318182,14.913745648699175L257.15456420454547,13.707661781202674" fill="none"></path></g></g></g></g><g opacity="0.2"><g><g><g><path style="fill: none;" stroke="rgb(255, 112, 67)" stroke-width="2px" d="M8.295308522727272,161.62410052732594L12.44296278409091,158.91672290865245L16.590617045454543,155.2552975048468L20.73827130681818,151.07639064396994L24.88592556818182,147.16561927054818L29.033579829545452,143.078509010292L33.181234090909086,139.2390365816666L37.32888835227273,135.1139044351437L41.47654261363636,130.8059171716941L45.624196875,126.64695967543639L49.77185113636364,123.10326926388097L53.91950539772728,118.90886263239622L58.067159659090905,115.96797622468694L62.214813920454546,112.29571152551739L66.36246818181817,109.31878551512932L70.51012244318181,106.62715018048141L74.65777670454546,103.49150441025608L78.8054309659091,100.83020434094078L82.95308522727272,98.82712786344109L87.10073948863636,95.87779566235974L91.24839375,93.99497420784178L95.39604801136363,90.70645008792667L99.54370227272727,87.32320866231714L103.6913565340909,85.19223271714816L107.83901079545456,82.44512507422257L111.98666505681818,80.26760764098333L116.13431931818181,77.18415497586625L120.28197357954546,74.82829528408138L124.42962784090909,71.7842984976138L128.57728210227273,70.03781176007556L132.72493636363635,67.75628770283879L136.87259062500002,65.8767876277368L141.02024488636363,64.05921282663496L145.16789914772727,61.11928592853474L149.3155534090909,58.50657289524747L153.46320767045455,55.26040427093233L157.6108619318182,52.3851335587965L161.7585161931818,48.255404201399415L165.90617045454545,46.3578737808964L170.05382471590912,44.555398076060214L174.20147897727273,42.19231570205329L178.34913323863637,40.65885064178815L182.4967875,38.953158878727436L186.64444176136362,37.201020524151204L190.79209602272726,36.020222693493224L194.9397502840909,33.45600179967926L199.08740454545455,31.876659527227048L203.2350588068182,29.728654922512646L207.3827130681818,27.692153769620404L211.53036732954544,25.85999653127317L215.6780215909091,23.75530693176779L219.82567585227272,23.105434236769497L223.97333011363637,21.291676385980622L228.120984375,19.833174331931048L232.26863863636362,19.03457764752835L236.4162928977273,17.750168595184277L240.56394715909093,16.28135972088353L244.71160142045454,15.15614491115042L248.85925568181818,13.995459878066981L253.00690994318182,13.550184155093007L257.15456420454547,11.898535979958012" fill="none"></path></g></g></g></g></g></g><g transform="translate(51, 176)" clip-path="url(#clip_1)"><clipPath id="clip_1"><rect width="278" height="23"></rect></clipPath><g><g><line x1="0" y1="0" x2="0" y2="5" style="visibility: inherit;" fill="rgb(0, 0, 0)" stroke="rgb(204, 204, 204)" stroke-width="1px"></line><line x1="25.31527259133079" y1="0" x2="25.31527259133079" y2="5" style="visibility: inherit;" fill="rgb(0, 0, 0)" stroke="rgb(204, 204, 204)" stroke-width="1px"></line><line x1="50.63054518266158" y1="0" x2="50.63054518266158" y2="5" style="visibility: inherit;" fill="rgb(0, 0, 0)" stroke="rgb(204, 204, 204)" stroke-width="1px"></line><line x1="75.94581777399236" y1="0" x2="75.94581777399236" y2="5" style="visibility: inherit;" fill="rgb(0, 0, 0)" stroke="rgb(204, 204, 204)" stroke-width="1px"></line><line x1="101.26109036532316" y1="0" x2="101.26109036532316" y2="5" style="visibility: inherit;" fill="rgb(0, 0, 0)" stroke="rgb(204, 204, 204)" stroke-width="1px"></line><line x1="126.57636295665394" y1="0" x2="126.57636295665394" y2="5" style="visibility: inherit;" fill="rgb(0, 0, 0)" stroke="rgb(204, 204, 204)" stroke-width="1px"></line><line x1="151.89163554798472" y1="0" x2="151.89163554798472" y2="5" style="visibility: inherit;" fill="rgb(0, 0, 0)" stroke="rgb(204, 204, 204)" stroke-width="1px"></line><line x1="177.20690813931552" y1="0" x2="177.20690813931552" y2="5" style="visibility: inherit;" fill="rgb(0, 0, 0)" stroke="rgb(204, 204, 204)" stroke-width="1px"></line><line x1="202.5221807306463" y1="0" x2="202.5221807306463" y2="5" style="visibility: inherit;" fill="rgb(0, 0, 0)" stroke="rgb(204, 204, 204)" stroke-width="1px"></line><line x1="227.8374533219771" y1="0" x2="227.8374533219771" y2="5" style="visibility: inherit;" fill="rgb(0, 0, 0)" stroke="rgb(204, 204, 204)" stroke-width="1px"></line><line x1="253.15272591330788" y1="0" x2="253.15272591330788" y2="5" style="visibility: inherit;" fill="rgb(0, 0, 0)" stroke="rgb(204, 204, 204)" stroke-width="1px"></line><line x1="278.4679985046387" y1="0" x2="278.4679985046387" y2="5" style="visibility: inherit;" fill="rgb(0, 0, 0)" stroke="rgb(204, 204, 204)" stroke-width="1px"></line></g><g transform="translate(0, 8)"><text style="text-anchor: middle; visibility: hidden; font-family: Roboto, sans-serif; font-size: 12px; font-weight: 200;" x="0" y="0" dx="0em" dy="0.95em" fill="rgb(33, 33, 33)" stroke="none" stroke-width="1px">0</text><text style="text-anchor: middle; visibility: inherit; font-family: Roboto, sans-serif; font-size: 12px; font-weight: 200;" x="25.31527259133079" y="0" dx="0em" dy="0.95em" fill="rgb(33, 33, 33)" stroke="none" stroke-width="1px">50k</text><text style="text-anchor: middle; visibility: hidden; font-family: Roboto, sans-serif; font-size: 12px; font-weight: 200;" x="50.63054518266158" y="0" dx="0em" dy="0.95em" fill="rgb(33, 33, 33)" stroke="none" stroke-width="1px">100k</text><text style="text-anchor: middle; visibility: inherit; font-family: Roboto, sans-serif; font-size: 12px; font-weight: 200;" x="75.94581777399236" y="0" dx="0em" dy="0.95em" fill="rgb(33, 33, 33)" stroke="none" stroke-width="1px">150k</text><text style="text-anchor: middle; visibility: hidden; font-family: Roboto, sans-serif; font-size: 12px; font-weight: 200;" x="101.26109036532316" y="0" dx="0em" dy="0.95em" fill="rgb(33, 33, 33)" stroke="none" stroke-width="1px">200k</text><text style="text-anchor: middle; visibility: inherit; font-family: Roboto, sans-serif; font-size: 12px; font-weight: 200;" x="126.57636295665394" y="0" dx="0em" dy="0.95em" fill="rgb(33, 33, 33)" stroke="none" stroke-width="1px">250k</text><text style="text-anchor: middle; visibility: hidden; font-family: Roboto, sans-serif; font-size: 12px; font-weight: 200;" x="151.89163554798472" y="0" dx="0em" dy="0.95em" fill="rgb(33, 33, 33)" stroke="none" stroke-width="1px">300k</text><text style="text-anchor: middle; visibility: inherit; font-family: Roboto, sans-serif; font-size: 12px; font-weight: 200;" x="177.20690813931552" y="0" dx="0em" dy="0.95em" fill="rgb(33, 33, 33)" stroke="none" stroke-width="1px">350k</text><text style="text-anchor: middle; visibility: hidden; font-family: Roboto, sans-serif; font-size: 12px; font-weight: 200;" x="202.5221807306463" y="0" dx="0em" dy="0.95em" fill="rgb(33, 33, 33)" stroke="none" stroke-width="1px">400k</text><text style="text-anchor: middle; visibility: inherit; font-family: Roboto, sans-serif; font-size: 12px; font-weight: 200;" x="227.8374533219771" y="0" dx="0em" dy="0.95em" fill="rgb(33, 33, 33)" stroke="none" stroke-width="1px">450k</text><text style="text-anchor: middle; visibility: hidden; font-family: Roboto, sans-serif; font-size: 12px; font-weight: 200;" x="253.15272591330788" y="0" dx="0em" dy="0.95em" fill="rgb(33, 33, 33)" stroke="none" stroke-width="1px">500k</text><text style="text-anchor: middle; visibility: hidden; font-family: Roboto, sans-serif; font-size: 12px; font-weight: 200;" x="278.4679985046387" y="0" dx="0em" dy="0.95em" fill="rgb(33, 33, 33)" stroke="none" stroke-width="1px">550k</text></g><line x1="0" y1="0" x2="278.4679985046387" y2="0" fill="rgb(0, 0, 0)" stroke="rgb(204, 204, 204)" stroke-width="1px"></line></g></g></g></g></svg>